<svg xmlns="http://www.w3.org/2000/svg" version="1.0" width="300.000000pt" height="300.000000pt" viewBox="-3 -3 306 306" preserveAspectRatio="xMidYMid meet"><g id="deeditor_bgCarrier" stroke-width="0">
  <rect id="dee_c_e" x="-3" y="-3" width="306" height="306" rx="38.4" fill="#000000" strokewidth="0"/>
</g>
<metadata fill="#ffffff">
Created by potrace 1.10, written by Peter Selinger 2001-2011
</metadata>
<g transform="translate(0.000000,300.000000) scale(0.100000,-0.100000)" fill="#ffffff" stroke="none">
<path d="M932 2419 l88 -208 0 -236 0 -236 66 3 65 3 -1 232 -1 231 70 174 c38 95 76 189 84 208 l15 35 -76 -2 -76 -2 -38 -133 c-21 -73 -38 -142 -38 -152 0 -40 -15 -1 -55 141 l-41 146 -75 2 -75 1 88 -207z m65 46 c63 -212 103 -213 166 0 25 83 37 111 51 113 10 2 22 0 27 -5 4 -4 -22 -82 -59 -173 l-66 -165 -4 -222 -3 -223 -24 0 -24 0 -3 223 -3 222 -67 157 c-38 87 -68 165 -68 173 0 11 7 15 22 13 19 -3 27 -19 55 -113z" fill="#ffffff"/>
<path d="M1433 2400 c-46 -10 -80 -35 -100 -73 -15 -27 -18 -64 -21 -245 -3 -198 -2 -216 17 -255 27 -56 67 -79 139 -80 98 -2 153 45 172 144 13 67 12 321 -1 378 -23 101 -106 153 -206 131z m107 -55 c56 -29 62 -57 61 -272 -1 -207 -7 -235 -53 -267 -14 -10 -44 -16 -75 -16 -44 0 -58 5 -85 29 l-33 29 0 219 c0 235 3 249 57 280 31 17 93 16 128 -2z" fill="#ffffff"/>
<path d="M1411 2305 l-31 -36 0 -194 0 -194 30 -34 c36 -42 57 -48 98 -31 56 23 62 51 62 268 l0 194 -31 31 c-44 44 -87 43 -128 -4z m116 -35 c18 -35 18 -355 0 -390 -16 -31 -61 -39 -88 -14 -17 16 -19 33 -19 207 0 165 2 193 17 209 24 27 74 20 90 -12z" fill="#ffffff"/>
<path d="M1730 2123 c0 -142 5 -274 10 -294 14 -50 43 -74 92 -74 33 0 45 6 64 30 l24 30 0 -27 c0 -28 0 -28 70 -28 l70 0 0 310 0 310 -57 0 -58 0 3 -232 c2 -128 0 -243 -3 -256 -3 -12 -17 -28 -30 -34 -21 -9 -28 -8 -45 7 -19 17 -20 31 -20 267 l0 248 -60 0 -60 0 0 -257z m80 -17 l0 -224 25 -30 c33 -39 32 -52 -6 -52 -52 0 -59 35 -59 293 0 123 3 227 7 230 3 4 12 7 20 7 10 0 13 -44 13 -224z m205 -37 l0 -254 -23 -3 c-46 -7 -55 5 -30 39 22 29 23 39 26 255 2 169 6 224 15 221 9 -3 12 -69 12 -258z" fill="#ffffff"/>
<path d="M797 1609 c-60 -14 -110 -44 -155 -92 -79 -87 -77 -72 -77 -522 l0 -400 27 -50 c35 -66 80 -108 153 -142 l60 -28 658 -3 c427 -2 678 1 715 8 105 19 182 75 230 165 l27 50 0 400 c0 365 -2 403 -18 439 -27 58 -101 131 -160 157 l-52 24 -685 2 c-380 1 -702 -3 -723 -8z m1449 -53 c63 -29 108 -74 136 -134 18 -40 19 -67 19 -426 -1 -429 0 -423 -72 -501 -27 -29 -60 -51 -95 -65 -53 -19 -75 -20 -734 -20 -659 0 -681 1 -734 20 -36 14 -68 36 -96 66 -71 77 -71 81 -74 423 -2 168 0 347 3 397 6 84 10 97 43 147 29 43 50 61 95 83 76 38 122 40 871 37 l584 -2 54 -25z" fill="#ffffff"/>
<path d="M682 1407 c-47 -49 -15 -147 47 -147 12 0 31 -5 42 -10 18 -10 19 -25 19 -330 0 -375 -4 -360 99 -360 52 0 62 3 80 26 20 26 21 38 21 344 0 355 -6 330 74 330 56 0 76 22 76 83 0 34 -6 53 -20 67 -19 19 -33 20 -218 20 -195 0 -199 0 -220 -23z m428 -62 l0 -55 -80 0 -81 0 3 -350 3 -350 -67 0 -68 0 0 353 0 352 -65 -3 -65 -4 0 56 0 56 210 0 210 0 0 -55z" fill="#ffffff"/>
<path d="M1490 1410 c-20 -20 -25 -62 -20 -177 2 -46 -5 -51 -36 -28 -11 9 -42 14 -77 15 -48 0 -62 -4 -82 -24 l-24 -24 -22 24 c-19 20 -32 24 -79 24 -46 0 -61 -4 -78 -23 -21 -23 -22 -30 -22 -273 0 -140 5 -265 10 -286 20 -70 92 -98 178 -69 42 15 54 15 74 5 38 -22 93 -17 125 10 l28 25 23 -22 c18 -17 35 -22 73 -21 27 0 54 5 60 11 8 8 21 7 45 -3 49 -21 107 -18 138 7 33 26 47 51 61 114 l12 50 28 -57 c63 -133 189 -174 294 -97 76 55 106 160 62 220 l-23 31 22 23 c21 23 22 31 18 153 -3 122 -5 132 -30 164 -91 119 -291 84 -344 -60 -23 -62 -29 -68 -32 -31 -7 86 -71 149 -153 149 -43 0 -49 3 -55 24 -3 13 -5 32 -4 42 10 92 -15 124 -95 124 -42 0 -60 -5 -75 -20z m140 -130 l0 -119 36 24 c20 14 51 25 69 25 36 0 79 -34 95 -75 13 -35 13 -410 -1 -459 -14 -51 -50 -86 -89 -86 -32 0 -82 21 -112 48 -17 14 -18 13 -18 -11 0 -24 -4 -25 -55 -29 l-55 -3 0 403 0 402 65 0 65 0 0 -120z m546 -76 c54 -26 67 -61 72 -204 l4 -125 -116 3 -116 4 0 -79 c0 -94 15 -123 62 -123 46 0 68 25 68 77 l0 43 50 0 50 0 0 -42 c0 -57 -34 -122 -76 -149 -50 -31 -123 -29 -173 4 -66 44 -76 77 -79 274 -2 100 1 188 7 211 14 50 46 91 85 108 43 18 121 17 162 -2z m-963 -245 c-3 -236 2 -269 35 -269 40 0 42 16 42 262 l0 238 68 0 67 0 0 -300 0 -300 -52 0 -53 0 0 41 0 42 -22 -28 c-39 -50 -139 -72 -182 -40 -29 22 -35 81 -36 343 l0 242 68 0 67 0 -2 -231z m925 -141 c-7 -13 -17 -39 -23 -58 -8 -25 -16 -35 -30 -35 -16 0 -21 8 -23 44 -5 62 1 71 48 71 39 0 40 -1 28 -22z" fill="#ffffff"/>
<path d="M1642 1118 c-9 -9 -12 -68 -12 -204 0 -162 3 -195 16 -208 18 -18 47 -20 75 -6 18 10 19 23 19 208 0 141 -3 201 -12 210 -16 16 -70 16 -86 0z m65 -199 c2 -167 -5 -202 -33 -178 -19 15 -20 319 -2 337 28 28 33 3 35 -159z" fill="#ffffff"/>
<path d="M2048 1093 c-9 -10 -18 -39 -21 -65 l-5 -48 64 0 64 0 0 45 c0 72 -62 113 -102 68z m60 -46 c4 -21 -25 -34 -40 -19 -8 8 -8 16 2 27 16 19 34 15 38 -8z" fill="#ffffff"/>
</g>
</svg>